<?xml version="1.0" encoding="utf-8"?>
<!-- Generator: Adobe Illustrator 27.7.0, SVG Export Plug-In . SVG Version: 6.00 Build 0)  -->
<svg version="1.1" id="_レイヤー_2" xmlns="http://www.w3.org/2000/svg" xmlns:xlink="http://www.w3.org/1999/xlink" x="0px"
	 y="0px" viewBox="0 0 20 18.2" style="enable-background:new 0 0 20 18.2;" xml:space="preserve">
<style type="text/css">
	.st0{fill:#FFFFFF;}
</style>
<g id="_レイヤー_1-2">
	<path class="st0" d="M20,9.1C20,9,20,9,20,8.9c0-0.1,0-0.1-0.1-0.2c0,0,0,0,0-0.1c0,0-0.1-0.1-0.1-0.1c0-0.1-0.1-0.1-0.1-0.2
		s-0.1-0.1-0.2-0.1c0,0-0.1-0.1-0.1-0.1c-3.8-1.8-7.1-5.3-8.7-7.7c-0.3-0.5-1-0.6-1.5-0.3s-0.6,1-0.3,1.5C10.2,3.6,12.4,6,15.1,8
		h-14C0.5,8,0,8.5,0,9.1s0.5,1.1,1.1,1.1h14c-2.7,2-4.9,4.4-6.2,6.3C8.5,17,8.7,17.6,9.2,18c0.2,0.1,0.4,0.2,0.6,0.2
		c0.3,0,0.7-0.2,0.9-0.5c1.6-2.4,4.9-5.8,8.7-7.7c0,0,0,0,0,0c0.1-0.1,0.2-0.1,0.3-0.2c0,0,0,0,0,0c0-0.1,0.1-0.1,0.1-0.2
		c0,0,0,0,0-0.1c0-0.1,0-0.1,0.1-0.2C20,9.2,20,9.1,20,9.1L20,9.1z"/>
</g>
</svg>
