<?xml version="1.0" encoding="UTF-8"?>
<svg id="_レイヤー_2" data-name="レイヤー 2" xmlns="http://www.w3.org/2000/svg" viewBox="0 0 20 18.19">
  <defs>
    <style>
      .cls-1 {
        fill: #3d3a39;
      }
    </style>
  </defs>
  <g id="_レイヤー_1-2" data-name="レイヤー 1">
    <path class="cls-1" d="m20,9.1c0-.07-.02-.13-.03-.19-.01-.08-.03-.15-.06-.22,0-.02,0-.04-.02-.06-.02-.04-.06-.07-.08-.11-.04-.06-.08-.12-.13-.18s-.12-.09-.18-.14c-.04-.02-.06-.06-.11-.08-3.82-1.85-7.1-5.28-8.74-7.66-.34-.49-1.01-.61-1.5-.27s-.61,1.01-.27,1.5c1.29,1.87,3.52,4.33,6.23,6.32H1.08c-.6,0-1.08.48-1.08,1.08s.48,1.08,1.08,1.08h14.04c-2.71,1.99-4.94,4.45-6.23,6.32-.34.49-.22,1.16.27,1.5.19.13.4.19.61.19.34,0,.68-.16.89-.47,1.64-2.38,4.92-5.81,8.74-7.66.01,0,.02-.02.03-.02.11-.06.22-.13.3-.23.01-.01.02-.03.03-.04.05-.06.1-.13.14-.21,0-.02,0-.04.02-.06.03-.07.04-.14.06-.22.01-.07.03-.13.03-.19Z"/>
  </g>
</svg>